<svg xmlns="http://www.w3.org/2000/svg" version="1.1" xmlns:xlink="http://www.w3.org/1999/xlink" viewBox="0 0 200 200"><rect width="200" height="200" fill="url('#gradient')"></rect><defs><linearGradient id="gradient" gradientTransform="rotate(81 0.5 0.5)"><stop offset="0%" stop-color="#b7b8ba"></stop><stop offset="100%" stop-color="#ebf1f1"></stop></linearGradient></defs><g><g fill="#242f35" transform="matrix(3.9325794751440153,0,0,3.9325794751440153,5.77543647413394,125.56078862757323)" stroke="#323847" stroke-width="0"><path d="M1.07-14.22L5.58-14.22L8.75-4.33L11.91-14.22L16.43-14.22L16.43 0L12.99 0L12.99-3.32L13.32-10.12L9.88 0L7.62 0L4.17-10.13L4.50-3.32L4.50 0L1.07 0L1.07-14.22ZM23.25 1.22L17.33-14.22L20.76-14.22L26.70 1.22L23.25 1.22ZM31.78 1.22L25.86-14.22L29.29-14.22L35.22 1.22L31.78 1.22ZM41.27-4.82L39.08-4.82L39.08 0L35.65 0L35.65-14.22L41.33-14.22Q42.96-14.22 44.21-13.62Q45.47-13.02 46.16-11.91Q46.85-10.80 46.85-9.39L46.85-9.39Q46.85-7.31 45.36-6.07Q43.87-4.82 41.27-4.82L41.27-4.82ZM39.08-11.57L39.08-7.47L41.33-7.47Q42.32-7.47 42.85-7.97Q43.37-8.47 43.37-9.38L43.37-9.38Q43.37-10.37 42.83-10.97Q42.29-11.56 41.37-11.57L41.37-11.57L39.08-11.57Z"></path></g></g></svg>